<mxfile host="app.diagrams.net" modified="2022-05-14T23:11:48.056Z" agent="5.0 (Macintosh; Intel Mac OS X 10_15_7) AppleWebKit/537.36 (KHTML, like Gecko) Chrome/101.0.4951.64 Safari/537.36" etag="fj2eo68ef1IIlLDwU-46" version="18.0.4" type="github">
  <diagram id="VY14Kp2bZg2UIhSIN0tL" name="Page-1">
    <mxGraphModel dx="946" dy="621" grid="1" gridSize="10" guides="1" tooltips="1" connect="1" arrows="1" fold="1" page="1" pageScale="1" pageWidth="827" pageHeight="1169" math="0" shadow="0">
      <root>
        <mxCell id="0" />
        <mxCell id="1" parent="0" />
        <mxCell id="a-HRDvgDwT7PZsZXaRJc-5" style="edgeStyle=orthogonalEdgeStyle;rounded=0;orthogonalLoop=1;jettySize=auto;html=1;exitX=0.75;exitY=1;exitDx=0;exitDy=0;entryX=0.75;entryY=0;entryDx=0;entryDy=0;" edge="1" parent="1" source="a-HRDvgDwT7PZsZXaRJc-1" target="a-HRDvgDwT7PZsZXaRJc-2">
          <mxGeometry relative="1" as="geometry" />
        </mxCell>
        <mxCell id="a-HRDvgDwT7PZsZXaRJc-7" value="Rates" style="edgeLabel;html=1;align=center;verticalAlign=middle;resizable=0;points=[];" vertex="1" connectable="0" parent="a-HRDvgDwT7PZsZXaRJc-5">
          <mxGeometry x="0.0111" y="-1" relative="1" as="geometry">
            <mxPoint y="-5" as="offset" />
          </mxGeometry>
        </mxCell>
        <mxCell id="a-HRDvgDwT7PZsZXaRJc-1" value="PriceLabs&lt;br&gt;(Dynamic Pricing)" style="rounded=1;whiteSpace=wrap;html=1;" vertex="1" parent="1">
          <mxGeometry x="354" y="80" width="120" height="60" as="geometry" />
        </mxCell>
        <mxCell id="a-HRDvgDwT7PZsZXaRJc-4" style="edgeStyle=orthogonalEdgeStyle;rounded=0;orthogonalLoop=1;jettySize=auto;html=1;exitX=0.25;exitY=0;exitDx=0;exitDy=0;entryX=0.25;entryY=1;entryDx=0;entryDy=0;" edge="1" parent="1" source="a-HRDvgDwT7PZsZXaRJc-2" target="a-HRDvgDwT7PZsZXaRJc-1">
          <mxGeometry relative="1" as="geometry" />
        </mxCell>
        <mxCell id="a-HRDvgDwT7PZsZXaRJc-6" value="Availability" style="edgeLabel;html=1;align=center;verticalAlign=middle;resizable=0;points=[];" vertex="1" connectable="0" parent="a-HRDvgDwT7PZsZXaRJc-4">
          <mxGeometry x="0.0333" y="1" relative="1" as="geometry">
            <mxPoint y="-4" as="offset" />
          </mxGeometry>
        </mxCell>
        <mxCell id="a-HRDvgDwT7PZsZXaRJc-2" value="BookingAutomation&lt;br&gt;(PMS)" style="rounded=1;whiteSpace=wrap;html=1;fillColor=#d5e8d4;strokeColor=#82b366;" vertex="1" parent="1">
          <mxGeometry x="354" y="230" width="120" height="60" as="geometry" />
        </mxCell>
        <mxCell id="a-HRDvgDwT7PZsZXaRJc-3" value="ChargeAutomation&lt;br&gt;(PMS)" style="rounded=1;whiteSpace=wrap;html=1;" vertex="1" parent="1">
          <mxGeometry x="354" y="380" width="120" height="60" as="geometry" />
        </mxCell>
      </root>
    </mxGraphModel>
  </diagram>
</mxfile>
